<?xml version="1.0" encoding="UTF-8" standalone="no"?>
<!-- Created with Inkscape (http://www.inkscape.org/) -->

<svg
   width="210mm"
   height="297mm"
   viewBox="0 0 210 297"
   version="1.1"
   id="svg1"
   xml:space="preserve"
   inkscape:version="1.4.2 (f4327f4, 2025-05-13)"
   sodipodi:docname="icononlylogo.svg"
   xmlns:inkscape="http://www.inkscape.org/namespaces/inkscape"
   xmlns:sodipodi="http://sodipodi.sourceforge.net/DTD/sodipodi-0.dtd"
   xmlns="http://www.w3.org/2000/svg"
   xmlns:svg="http://www.w3.org/2000/svg"><sodipodi:namedview
     id="namedview1"
     pagecolor="#ffffff"
     bordercolor="#000000"
     borderopacity="0.25"
     inkscape:showpageshadow="2"
     inkscape:pageopacity="0.0"
     inkscape:pagecheckerboard="0"
     inkscape:deskcolor="#d1d1d1"
     inkscape:document-units="mm"
     inkscape:zoom="0.34431467"
     inkscape:cx="-257.03232"
     inkscape:cy="724.62784"
     inkscape:window-width="1920"
     inkscape:window-height="991"
     inkscape:window-x="-9"
     inkscape:window-y="-9"
     inkscape:window-maximized="1"
     inkscape:current-layer="layer1" /><defs
     id="defs1" /><g
     inkscape:label="Layer 1"
     inkscape:groupmode="layer"
     id="layer1"><path
       style="fill:#0000ff;stroke-width:2.61355"
       d="m 124.73176,205.98453 c -6.84585,-3.57016 -20.84874,-10.73778 -31.11752,-15.92802 -45.389712,-22.94175 -47.297817,-24.11108 -50.555442,-30.98167 -1.639244,-3.45731 -1.639341,-3.45911 -1.649515,-31.11753 -0.0091,-24.61489 0.123437,-28.040701 1.20337,-31.117551 1.608242,-4.58201 5.814472,-8.72757 10.958967,-10.80087 l 4.08459,-1.64614 58.28613,-0.19889 58.28611,-0.19889 2.04729,2.04729 c 1.86197,1.86197 2.04733,2.46737 2.04733,6.68788 0,5.95 -1.04014,9.337781 -3.88859,12.665581 -2.533,2.95924 -0.72116,2.03355 -53.67884,27.4254 -18.16054,8.7075 -33.013195,15.9985 -33.005909,16.20223 0.0073,0.20386 2.107717,1.58833 4.667628,3.0769 7.454968,4.33498 57.873631,37.78855 58.162511,38.59174 0.14442,0.40155 -0.0112,0.56505 -0.34575,0.36339 -1.10777,-0.66776 -29.50676,-14.39716 -37.76734,-18.25852 -16.020754,-7.4888 -35.077365,-17.6206 -36.468518,-19.38918 -1.542917,-1.9615 -1.877762,-6.47127 -0.708773,-9.54595 0.69829,-1.83664 3.416144,-3.26011 34.575011,-18.10847 26.53566,-12.64528 55.72927,-26.751681 56.10669,-27.110911 0.24254,-0.23078 0.65244,-1.1198 0.91098,-1.97553 l 0.47007,-1.55587 -52.42776,0.0105 c -53.483635,0.0104 -55.009914,0.0776 -59.491268,2.6056 -2.783965,1.5705 -3.057462,4.568111 -2.831246,31.031331 l 0.213735,25.00366 2.097747,2.59088 c 2.278011,2.81354 1.6258,2.46314 55.296802,29.70634 16.35398,8.30125 30.61315,15.5397 31.68702,16.08548 2.74041,1.39282 2.82768,2.12424 0.78561,6.58468 -1.56807,3.42513 -2.04274,3.92426 -3.65318,3.84146 -1.01801,-0.0523 -7.45209,-3.01624 -14.29794,-6.58642 z"
       id="path1" /></g></svg>
